<?xml version="1.0" encoding="utf-8"?>
<svg viewBox="0 0 500 500" xmlns="http://www.w3.org/2000/svg">
  <path d="M 247.102 190.427 C 235.252 190.427 223.968 188.733 215.506 185.349 L 39.465 121.027 C 24.796 115.948 23.103 108.05 23.103 103.535 C 23.103 99.585 25.36 91.687 39.465 86.045 L 214.941 21.159 C 223.404 17.774 234.69 16.08 246.537 16.08 C 258.386 16.08 269.671 17.774 278.134 21.159 L 454.173 86.045 C 468.843 91.122 470.535 99.022 470.535 103.535 C 470.535 107.485 468.278 115.384 454.173 121.027 L 278.699 185.914 C 270.235 188.733 258.951 190.427 247.102 190.427 Z M 209.298 483.26 C 205.348 483.26 200.835 482.695 196.885 481.003 L 43.416 422.325 C 25.36 415.553 11.819 394.676 11.819 373.8 L 11.819 178.013 C 11.819 160.522 21.411 149.238 36.08 149.238 C 40.031 149.238 43.98 149.803 47.93 151.495 L 203.655 210.175 C 222.276 216.945 237.508 238.385 237.508 258.698 L 237.508 454.484 C 236.944 471.411 225.097 483.26 209.298 483.26 Z M 288.29 479.875 L 288.854 479.875 C 274.185 479.875 265.157 471.411 265.157 454.484 L 265.157 258.698 C 265.157 237.821 278.134 216.945 296.189 210.175 L 449.659 151.495 C 453.608 149.803 458.122 149.238 462.637 149.238 C 478.434 149.238 490.284 161.087 490.284 178.013 L 490.284 373.8 C 490.284 394.114 474.485 415.553 455.865 422.325 L 300.139 479.31 C 296.753 481.003 292.24 479.875 288.29 479.875 Z" style="fill: rgb(171, 88, 218);" transform="matrix(1, 0, 0, 1, 2.842170943040401e-14, 2.842170943040401e-14)"/>
</svg>